<svg version="1.1" id="Layer_1" xmlns="http://www.w3.org/2000/svg" xmlns:xlink="http://www.w3.org/1999/xlink" x="0px" y="0px"
	 width="100%" viewBox="0 0 256 256" enable-background="new 0 0 256 256" xml:space="preserve">
<path fill="#088FD6" opacity="1.000000" stroke="none" 
	d="
M237.756058,178.762924 
	C217.291779,220.165131 184.396042,243.868805 138.817978,247.951553 
	C74.733765,253.692047 18.600285,206.676239 11.070685,142.654480 
	C3.759697,80.491493 47.810757,21.597275 110.910805,11.937099 
	C172.764526,2.467730 230.752441,41.343712 245.330460,102.326324 
	C251.584198,128.486847 248.717026,153.868393 237.756058,178.762924 
M174.595490,227.197708 
	C219.681763,204.642197 243.485687,159.883774 235.688675,112.324326 
	C225.882751,52.511005 169.550964,12.843674 109.878120,23.549391 
	C57.820156,32.888947 18.540379,81.056259 21.970695,135.017868 
	C24.165899,169.550156 39.043777,197.090134 66.903275,216.881271 
	C100.210434,240.542389 136.318115,243.362885 174.595490,227.197708 
z"/>
<path fill="#0B90D6" opacity="1.000000" stroke="none" 
	d="
M115.000000,82.001511 
	C124.999428,82.001396 134.511169,81.732857 143.990631,82.167740 
	C146.768570,82.295181 150.812622,83.770638 151.793442,85.817848 
	C152.735901,87.784935 151.222122,91.918739 149.484879,94.026855 
	C131.811539,115.473190 113.870956,136.699265 96.008774,157.990005 
	C95.367470,158.754379 94.706322,159.511566 94.151276,160.337219 
	C91.816803,163.809875 92.463737,165.498413 96.485191,166.156708 
	C98.114990,166.423477 99.803040,166.395264 101.464691,166.397049 
	C115.297173,166.411789 129.129669,166.398117 142.962173,166.405670 
	C144.458923,166.406494 146.270477,165.969345 147.382904,166.645416 
	C149.335922,167.832336 152.019943,169.595627 152.214813,171.358780 
	C152.384476,172.893951 149.753647,175.053375 147.947021,176.369812 
	C146.923431,177.115677 145.068161,176.821487 143.587280,176.823135 
	C122.755226,176.846313 101.921562,176.962448 81.092949,176.694244 
	C78.307083,176.658356 74.178703,175.336868 73.166039,173.343628 
	C72.187645,171.417862 73.651237,167.210327 75.382523,165.110001 
	C92.736778,144.056503 110.368668,123.231873 127.918137,102.339233 
	C128.774429,101.319832 129.790924,100.367775 130.375671,99.204781 
	C131.083282,97.797470 132.258057,95.555504 131.707718,94.830040 
	C130.830917,93.674210 128.700317,92.962524 127.091850,92.947800 
	C112.427315,92.813469 97.760902,92.899742 83.095367,92.840157 
	C80.955925,92.831467 78.548904,92.922127 76.754906,92.007378 
	C74.933060,91.078430 72.588875,88.983971 72.556931,87.358955 
	C72.525826,85.777260 74.904961,83.789818 76.661179,82.653313 
	C77.897743,81.853104 79.862068,82.031746 81.502495,82.024963 
	C92.501503,81.979462 103.500801,82.001427 115.000000,82.001511 
z"/>
<path fill="#098FD5" opacity="1.000000" stroke="none" 
	d="
M154.326019,131.669067 
	C161.520859,140.163391 168.592957,148.322784 175.691895,156.458740 
	C178.425735,159.591934 181.200485,162.690140 183.993713,165.770645 
	C186.479187,168.511734 187.916367,171.684509 184.916306,174.578262 
	C181.748352,177.633957 178.338303,176.154053 175.703552,173.334534 
	C169.685379,166.894257 163.814682,160.316238 157.876328,153.801254 
	C155.076065,150.729095 152.226196,147.701630 149.456726,144.602127 
	C146.566666,141.367676 143.755295,141.776031 140.996201,144.697037 
	C139.284927,146.508728 137.988113,149.056595 135.915192,150.087006 
	C133.757141,151.159775 130.322205,151.785751 128.522980,150.744843 
	C127.230240,149.996933 126.669418,145.640869 127.610374,143.860870 
	C129.592758,140.110840 132.706177,136.937134 135.478119,133.629715 
	C148.298889,118.332306 161.161667,103.070114 174.009506,87.795372 
	C174.437836,87.286125 174.846848,86.758820 175.299332,86.271965 
	C178.652512,82.664192 182.363068,81.779160 184.810349,84.274055 
	C188.059052,87.585968 186.294891,90.677299 183.911819,93.536224 
	C174.968811,104.265060 165.951523,114.932541 157.086212,125.724983 
	C155.784943,127.309120 155.154694,129.444473 154.326019,131.669067 
z"/>
</svg>